# xmcd
#
# Track frame offsets:
#	150
#	15446
#	29152
#	44221
#	57045
#	71943
#	85689
#	102301
#	121659
#	136131
#	154768
#	168705
#	188830
#	199592
#	217787
#	237443
#	257015
#	283897
#	297246
#	315505
#	326729
#
# Disc length: 4539 seconds
#
# Revision: 0
# Processed by: cddbd v1.5.2PL0 Copyright (c) Steve Scherf et al.
# Submitted via: EasyCDDAExtractor 11.0.0.1
#
DISCID=3711b915
DTITLE=나훈아 - 大韓民國소리꾼 나훈아 - Golden Best - CD-1-1
DYEAR=2012
DGENRE=K-GAYO
TTITLE0=추억의 대관령
TTITLE1=남은 인생
TTITLE2=이루지 못한 사랑
TTITLE3=남자라 울지못했다
TTITLE4=붉은 입술
TTITLE5=고장난 벽시계
TTITLE6=사내
TTITLE7=홍시(울엄마)
TTITLE8=너더 역시 여자였구나
TTITLE9=내 삶을 눈물로 채워도
TTITLE10=아리수(한강)
TTITLE11=공(空)
TTITLE12=모르고
TTITLE13=어매
TTITLE14=아담과 이브처럼
TTITLE15=고향으로 가는 배
TTITLE16=세월벡 길게누운 구름 한조각
TTITLE17=천생연분
TTITLE18=사나이 눈물
TTITLE19=무시로
TTITLE20=갈무리
EXTD=
EXTT0=
EXTT1=
EXTT2=
EXTT3=
EXTT4=
EXTT5=
EXTT6=
EXTT7=
EXTT8=
EXTT9=
EXTT10=
EXTT11=
EXTT12=
EXTT13=
EXTT14=
EXTT15=
EXTT16=
EXTT17=
EXTT18=
EXTT19=
EXTT20=
PLAYORDER=
